<?xml version="1.0" encoding="UTF-8"?>
<svg width="22" height="21" xmlns="http://www.w3.org/2000/svg">
  <path d="M15.5.2c3.53 0 6.3 2.83 6.3 6.422 0 1.274-.329 2.501-.98 3.745-1.19 2.275-2.78 3.951-7.826 8.633l-.569.528a2.118 2.118 0 0 1-2.85 0L9.005 19c-5.044-4.682-6.636-6.358-7.825-8.633C.529 9.123.2 7.896.2 6.622.2 3.031 2.97.2 6.5.2 8.156.2 9.778.857 11 1.977 12.222.857 13.844.2 15.5.2zm-5.114 3.445C9.428 2.498 7.972 1.8 6.5 1.8c-2.64 0-4.7 2.107-4.7 4.822 0 1.003.262 1.98.797 3.004 1.068 2.041 2.613 3.67 7.497 8.2l.569.528a.52.52 0 0 0 .674 0l.569-.527c4.884-4.532 6.429-6.16 7.497-8.201.535-1.025.797-2 .797-3.004 0-2.715-2.06-4.822-4.7-4.822-1.472 0-2.928.698-3.886 1.845L11 4.378l-.614-.733z" fill="#000" fill-rule="nonzero"/>
</svg>
