<?xml version="1.0" encoding="UTF-8"?>
<svg width="20" height="18" xmlns="http://www.w3.org/2000/svg">
  <g fill="#000" fill-rule="nonzero">
    <path d="M2.82 10.697L14.4.427c.598-.529 1.501-.459 2.009.156l3.05 3.695c.503.61.415 1.51-.196 2.01L6.836 16.463c-.46.376-1.255.685-1.848.718l-4.1.223a.74.74 0 0 1-.747-1.027l1.574-4.088c.203-.527.682-1.216 1.105-1.592zm2.106 5.342c.35-.019.913-.237 1.186-.46L18.539 5.403c.121-.1.139-.277.039-.398l-3.05-3.695a.25.25 0 0 0-.369-.028L3.578 11.553c-.286.253-.66.79-.796 1.147l-1.36 3.53 3.504-.19z"/>
    <path d="M11.789 3.78l.875-.734 3.935 4.683-.875.735z"/>
  </g>
</svg>
