<?xml version="1.0" encoding="UTF-8"?>
<svg width="20" height="20" xmlns="http://www.w3.org/2000/svg">
  <g fill="#000" fill-rule="nonzero">
    <path d="M4.191 4.214v13.967a.6.6 0 0 0 .596.605h10.426a.602.602 0 0 0 .596-.605V4.214H4.19zM3 3h14v15.18c0 1.005-.803 1.82-1.787 1.82H4.787C3.8 20 3 19.186 3 18.18V3z"/>
    <path d="M.625 4C.28 4 0 3.776 0 3.5S.28 3 .625 3h18.75c.345 0 .625.224.625.5s-.28.5-.625.5H.625z"/>
    <path d="M8.217 2.77h4.566V2a.766.766 0 0 0-.76-.77H8.977c-.42 0-.76.346-.76.77v.77zM7 2c0-1.105.887-2 1.978-2h3.044A1.99 1.99 0 0 1 14 2v2H7V2zM6 6.63c0-.348.224-.63.5-.63s.5.282.5.63v9.74c0 .348-.224.63-.5.63s-.5-.282-.5-.63V6.63zM10 7.6c0-.331.224-.6.5-.6s.5.269.5.6v7.8c0 .331-.224.6-.5.6s-.5-.269-.5-.6V7.6zM13 6.63c0-.348.224-.63.5-.63s.5.282.5.63v9.74c0 .348-.224.63-.5.63s-.5-.282-.5-.63V6.63z"/>
  </g>
</svg>
